<?xml version="1.0" standalone="no"?><!DOCTYPE svg PUBLIC "-//W3C//DTD SVG 1.1//EN" "http://www.w3.org/Graphics/SVG/1.1/DTD/svg11.dtd"><svg t="1734939567468" class="icon" viewBox="0 0 1024 1024" version="1.1" xmlns="http://www.w3.org/2000/svg" p-id="19853" xmlns:xlink="http://www.w3.org/1999/xlink" width="128" height="128"><path d="M921.6 819.2H102.4a102.4 102.4 0 0 1-102.4-102.4V102.4a102.4 102.4 0 0 1 102.4-102.4h819.2a102.4 102.4 0 0 1 102.4 102.4v614.4a102.4 102.4 0 0 1-102.4 102.4z m0-716.8H102.4v614.4h819.2V102.4zM51.2 921.6h921.6a51.2 51.2 0 0 1 0 102.4H51.2a51.2 51.2 0 0 1 0-102.4z" fill="#1f2026" p-id="19854"></path></svg>