<?xml version="1.0" standalone="no"?><!DOCTYPE svg PUBLIC "-//W3C//DTD SVG 1.1//EN" "http://www.w3.org/Graphics/SVG/1.1/DTD/svg11.dtd"><svg t="1734939455763" class="icon" viewBox="0 0 1024 1024" version="1.1" xmlns="http://www.w3.org/2000/svg" p-id="12781" xmlns:xlink="http://www.w3.org/1999/xlink" width="128" height="128"><path d="M122.368 165.888h317.44c-9.216 0-16.384-7.168-16.384-16.384v304.128c0-9.216 7.168-16.384 16.384-16.384h-317.44c9.216 0 16.384 7.168 16.384 16.384V150.016c0 8.192-6.656 15.872-16.384 15.872z m-32.768 274.944c0 26.112 20.992 47.104 47.104 47.104h289.28c26.112 0 47.104-20.992 47.104-47.104V162.304c0-26.112-20.992-47.104-47.104-47.104H136.704c-26.112 0-47.104 20.992-47.104 47.104v278.528zM583.168 165.888h317.44c-9.216 0-16.384-7.168-16.384-16.384v304.128c0-9.216 7.168-16.384 16.384-16.384h-317.44c9.216 0 16.384 7.168 16.384 16.384V150.016c0 8.192-6.656 15.872-16.384 15.872z m-32.768 274.944c0 26.112 20.992 47.104 47.104 47.104h289.28c26.112 0 47.104-20.992 47.104-47.104V162.304c0-26.112-20.992-47.104-47.104-47.104h-289.28c-26.112 0-47.104 20.992-47.104 47.104v278.528zM122.368 575.488h317.44c-9.216 0-16.384-7.168-16.384-16.384v304.128c0-9.216 7.168-16.384 16.384-16.384h-317.44c9.216 0 16.384 7.168 16.384 16.384v-303.616c0 8.192-6.656 15.872-16.384 15.872z m-32.768 274.944c0 26.112 20.992 47.104 47.104 47.104h289.28c26.112 0 47.104-20.992 47.104-47.104v-278.528c0-26.112-20.992-47.104-47.104-47.104H136.704c-26.112 0-47.104 20.992-47.104 47.104v278.528zM583.168 575.488h317.44c-9.216 0-16.384-7.168-16.384-16.384v304.128c0-9.216 7.168-16.384 16.384-16.384h-317.44c9.216 0 16.384 7.168 16.384 16.384v-303.616c0 8.192-6.656 15.872-16.384 15.872z m-32.768 274.944c0 26.112 20.992 47.104 47.104 47.104h289.28c26.112 0 47.104-20.992 47.104-47.104v-278.528c0-26.112-20.992-47.104-47.104-47.104h-289.28c-26.112 0-47.104 20.992-47.104 47.104v278.528z" p-id="12782" fill="#1f2026"></path></svg>