<?xml version="1.0" standalone="no"?><!DOCTYPE svg PUBLIC "-//W3C//DTD SVG 1.1//EN" "http://www.w3.org/Graphics/SVG/1.1/DTD/svg11.dtd"><svg t="1734942516604" class="icon" viewBox="0 0 1024 1024" version="1.1" xmlns="http://www.w3.org/2000/svg" p-id="23670" data-spm-anchor-id="a313x.search_index.0.i48.68f53a81ClUaOA" xmlns:xlink="http://www.w3.org/1999/xlink" width="128" height="128"><path d="M489.6 203.866c9.278-12.372 26.83-14.878 39.202-5.6a28.034 28.034 0 0 1 5.6 5.6l184 245.334c9.278 12.372 6.772 29.922-5.6 39.2a28.01 28.01 0 0 1-16.8 5.6H328c-15.464 0-28-12.536-28-28 0-6.058 1.964-11.954 5.6-16.8l184-245.334z" fill="#dddde1" p-id="23671" data-spm-anchor-id="a313x.search_index.0.i41.68f53a81ClUaOA" class=""></path><path d="M534.4 820.132c-9.28 12.372-26.83 14.878-39.2 5.602a27.94 27.94 0 0 1-5.6-5.602l-184-245.332c-9.278-12.372-6.77-29.922 5.6-39.202a28.006 28.006 0 0 1 16.8-5.6h368c15.464 0 28 12.536 28 28 0 6.058-1.964 11.954-5.6 16.8l-184 245.334z" fill="#dddde1" p-id="23672" data-spm-anchor-id="a313x.search_index.0.i42.68f53a81ClUaOA" class=""></path></svg>