<?xml version="1.0" standalone="no"?><!DOCTYPE svg PUBLIC "-//W3C//DTD SVG 1.1//EN" "http://www.w3.org/Graphics/SVG/1.1/DTD/svg11.dtd"><svg t="1734528058771" class="icon" viewBox="0 0 1024 1024" version="1.1" xmlns="http://www.w3.org/2000/svg" p-id="11562" xmlns:xlink="http://www.w3.org/1999/xlink" width="128" height="128"><path d="M400.437895 714.590316l-93.130106-93.130105a40.421053 40.421053 0 0 1 57.182316-57.128422l26.408421 26.408422V338.135579a40.421053 40.421053 0 0 1 80.842106 0v350.315789a40.421053 40.421053 0 0 1-71.302737 26.085053z m232.825263-278.905263v252.766315a40.421053 40.421053 0 1 1-80.842105 0V339.105684a40.421053 40.421053 0 0 1 68.985263-29.58821l95.285895 95.285894a40.421053 40.421053 0 0 1-57.182316 57.182316l-26.246737-26.246737zM512 836.661895a323.368421 323.368421 0 1 0 0-646.736842 323.368421 323.368421 0 0 0 0 646.736842z m0 80.842105a404.210526 404.210526 0 1 1 0-808.421053 404.210526 404.210526 0 0 1 0 808.421053z" fill="#0d53ff" p-id="11563"></path></svg>