<?xml version="1.0" standalone="no"?><!DOCTYPE svg PUBLIC "-//W3C//DTD SVG 1.1//EN" "http://www.w3.org/Graphics/SVG/1.1/DTD/svg11.dtd"><svg t="1734699177918" class="icon" viewBox="0 0 1024 1024" version="1.1" xmlns="http://www.w3.org/2000/svg" p-id="3091" xmlns:xlink="http://www.w3.org/1999/xlink" width="128" height="128"><path d="M787.9168 102.4A133.4272 133.4272 0 0 1 921.6 236.0832v401.1008c-2.048 76.0832-63.744 139.8272-141.9264 139.8272l-2.6624-0.2048v11.1104A133.4272 133.4272 0 0 1 643.3792 921.6H236.032A133.4272 133.4272 0 0 1 102.4 787.9168V380.672a133.4272 133.4272 0 0 1 133.6832-133.6832h11.3152a28.4672 28.4672 0 0 1-0.4096-4.7104C244.9408 164.096 308.736 102.4 386.8672 102.4h401.0496z m-144.5888 206.2848H236.0832c-39.0656 0-71.9872 32.8704-71.9872 71.9872v407.2448c0 39.0656 32.9216 71.9872 71.9872 71.9872h407.2448c39.1168 0 71.9872-32.9216 71.9872-71.9872V380.672c0-39.1168-32.8704-71.9872-71.9872-71.9872z m142.5408-144.5888H386.8672c-43.2128 0-78.1312 34.9696-78.1312 78.1824l-0.4608 4.6592h335.0528a133.4272 133.4272 0 0 1 133.6832 133.7344v334.7968a28.3136 28.3136 0 0 1 2.6624-0.1536c43.2128 0 78.1824-34.9696 78.1824-78.1312V236.032c0-41.1136-30.8736-71.9872-71.9872-71.9872z" fill="#8f8f92" p-id="3092"></path></svg>