<?xml version="1.0" standalone="no"?><!DOCTYPE svg PUBLIC "-//W3C//DTD SVG 1.1//EN" "http://www.w3.org/Graphics/SVG/1.1/DTD/svg11.dtd"><svg t="1735023958870" class="icon" viewBox="0 0 1024 1024" version="1.1" xmlns="http://www.w3.org/2000/svg" p-id="30515" xmlns:xlink="http://www.w3.org/1999/xlink" width="128" height="128"><path d="M512 928A416 416 0 1 1 928 512 416 416 0 0 1 512 928z m0-768A352 352 0 1 0 864 512 352 352 0 0 0 512 160z m-52.288 507.136a29.12 29.12 0 0 1-16.128 4.864 26.496 26.496 0 0 1-27.584-25.6V377.6a24.192 24.192 0 0 1 5.248-14.912 29.12 29.12 0 0 1 38.4-5.568l200.96 134.4a25.216 25.216 0 0 1 6.4 5.632 24.064 24.064 0 0 1-6.4 35.392z" fill="#555555" p-id="30516"></path></svg>