<?xml version="1.0" standalone="no"?><!DOCTYPE svg PUBLIC "-//W3C//DTD SVG 1.1//EN" "http://www.w3.org/Graphics/SVG/1.1/DTD/svg11.dtd"><svg t="1735023978355" class="icon" viewBox="0 0 1024 1024" version="1.1" xmlns="http://www.w3.org/2000/svg" p-id="31553" xmlns:xlink="http://www.w3.org/1999/xlink" width="128" height="128"><path d="M512 960A448 448 0 1 0 512 64a448 448 0 0 0 0 896z m0 64A512 512 0 1 1 512 0a512 512 0 0 1 0 1024z" fill="#555555" p-id="31554"></path><path d="M672 640a32 32 0 0 1-64 0V384a32 32 0 0 1 64 0v256zM416 640a32 32 0 0 1-64 0V384a32 32 0 1 1 64 0v256z" fill="#555555" p-id="31555"></path></svg>